<?xml version="1.0" encoding="UTF-8"?>
<svg width="32px" height="32px" viewBox="0 0 32 32" version="1.1" xmlns="http://www.w3.org/2000/svg" xmlns:xlink="http://www.w3.org/1999/xlink">
    <!-- Generator: Sketch 61 (89581) - https://sketch.com -->
    <title>css-dark-mode@scalable</title>
    <desc>Created with Sketch.</desc>
    <g id="css-dark-mode" stroke="none" stroke-width="1" fill="none" fill-rule="evenodd">
        <g id="Group" transform="translate(16.000000, 16.000000) rotate(180.000000) translate(-16.000000, -16.000000) translate(-0.000000, 0.000000)" fill="#FFFFFF">
            <path d="M5.02967579,20.8582746 C4.2682102,21.1703801 3.65525926,21.7292986 3.19082294,22.5350304 C2.72638662,23.3407621 2.45885913,24.3340488 2.38824047,25.5148906 C2.31047988,26.3744023 2.08197938,27.2538038 1.70273899,28.1530953 C1.13387841,29.5020325 0.0300149307,30.5122447 0.00285177171,30.7196031 C-0.0243113873,30.9269615 0.0978096451,31.4490381 2.38824047,31.2115906 C3.91519435,31.0532923 5.36124385,30.6782247 6.72638897,30.0863877 C8.56016699,29.1769844 9.79872583,28.3394486 10.4420655,27.5737806 C11.0854052,26.8081126 11.3390693,25.9497982 11.2030579,24.9988374 C10.9350843,23.5048328 10.1442739,22.3242075 8.83062666,21.4569615 C7.51697939,20.5897156 6.24999577,20.3901533 5.02967579,20.8582746 Z" id="Path"></path>
            <path d="M8.46363854,18.8005019 C8.53148054,19.1793491 9.37999882,19.060846 10.8970527,20.4841053 C12.4141067,21.9073647 12.6308044,23.1555448 12.8876286,23.1555448 C13.0885285,23.1555448 15.4927866,21.5551898 19.4831588,17.200019 C25.2060328,10.9539615 32.9727785,1.14590864 31.8543898,0.0991390709 C30.6774587,-1.00242387 20.0179076,7.31642585 13.5402896,13.1066715 C9.57052937,16.6551806 8.39579655,18.4216548 8.46363854,18.8005019 Z" id="Path-2"></path>
        </g>
    </g>
</svg>